<svg id="Layer_1" data-name="Layer 1" xmlns="http://www.w3.org/2000/svg" viewBox="0 0 500 500"><title>LedgerBoard-Logo</title><path d="M476.56,3.5H23.44A21,21,0,0,0,2.5,24.44V477.56A21,21,0,0,0,23.44,498.5H476.56a21,21,0,0,0,20.94-20.94V24.44A21,21,0,0,0,476.56,3.5ZM237.87,465.37a9.07,9.07,0,0,1-9.07,9.07H33.63a9.07,9.07,0,0,1-9.07-9.07V33.63a9.07,9.07,0,0,1,9.07-9.07H228.8a9.07,9.07,0,0,1,9.07,9.07Zm237.86,0a9.07,9.07,0,0,1-9.07,9.07H270.2a9.07,9.07,0,0,1-9.07-9.07V33.63a9.07,9.07,0,0,1,9.07-9.07H466.66a9.07,9.07,0,0,1,9.07,9.07Z" style="fill:currentColor;stroke:currentColor;stroke-miterlimit:10"/><rect x="51.06" y="334.17" width="115.05" height="38.78" rx="4.17" style="fill:currentColor"/><rect x="51.06" y="256.61" width="161.59" height="38.78" rx="4.17" style="fill:currentColor"/><rect x="51.06" y="179.05" width="161.59" height="38.78" rx="4.17" style="fill:currentColor"/><rect x="51.06" y="101.48" width="161.59" height="38.78" rx="4.17" style="fill:currentColor"/><rect x="384.59" y="360.03" width="64.64" height="38.78" rx="5.16" style="fill:currentColor"/><rect x="384.59" y="140.26" width="64.64" height="180.98" rx="5.16" style="fill:currentColor"/><rect x="287.64" y="250.15" width="64.64" height="71.1" rx="5.16" style="fill:currentColor"/><rect x="287.64" y="360.03" width="64.64" height="38.78" rx="5.16" style="fill:currentColor"/></svg>